<svg width="647" height="430" viewBox="0 0 647 430" fill="none" xmlns="http://www.w3.org/2000/svg">
<g clip-path="url(#clip0)">
<path d="M131.495 389.471C131.384 402.172 130.453 414.852 128.709 427.433C128.648 427.875 128.582 428.317 128.52 428.759L9.54335 428.094C9.19401 427.655 8.85018 427.211 8.51704 426.762C7.40627 425.275 6.36518 423.745 5.40948 422.163C0.815932 414.541 -1.28702 405.617 0.820363 399.46L0.858105 399.364C1.31301 398.016 2.02984 396.77 2.96743 395.7C7.77221 390.293 17.487 391.194 26.303 395.559C18.3956 386.906 12.0993 375.987 11.6209 366.241C11.1518 356.734 16.1241 349.943 21.5172 344.172C21.6941 343.981 21.871 343.796 22.048 343.611C22.1338 343.515 22.2249 343.425 22.3105 343.33C26.5182 338.932 31.4237 334.596 38.5241 335.12C46.3113 335.697 54.945 342.217 60.9987 349.816C67.0523 357.409 71.0751 366.035 75.1527 374.453C79.2355 382.867 83.6527 391.495 90.2042 398.686C81.3306 387.465 74.1761 374.698 71.5332 362.282C68.8903 349.865 71.2163 337.94 79.1248 332.092C81.5257 330.372 84.3039 329.251 87.227 328.824C87.5682 328.767 87.9147 328.721 88.2668 328.681C95.5878 327.848 104.329 330.379 111.766 336.43C119.956 343.092 125.635 352.968 128.46 362.344C131.285 371.72 131.586 380.746 131.495 389.471Z" fill="#F2F2F2"/>
<path d="M53.6537 428.34L51.3786 428.328C50.6562 427.876 49.9304 427.43 49.2012 426.989C48.7498 426.704 48.2931 426.43 47.8362 426.15C40.2898 421.543 32.6962 417.123 25.0554 412.892C17.4216 408.656 9.74933 404.616 2.03871 400.772C1.83433 400.683 1.66757 400.525 1.56743 400.326C1.4673 400.127 1.44011 399.899 1.49059 399.682C1.49885 399.653 1.51166 399.626 1.52851 399.602C1.63606 399.4 1.87643 399.316 2.22724 399.489C3.173 399.963 4.12422 400.437 5.06987 400.922C12.8016 404.832 20.5 408.938 28.1653 413.239C35.8254 417.539 43.4418 422.028 51.0145 426.706C51.1737 426.803 51.3331 426.905 51.4924 427.002C52.2146 427.448 52.9316 427.894 53.6537 428.34Z" fill="white"/>
<path d="M82.9877 428.504L81.5809 428.496C81.2636 428.053 80.9518 427.609 80.6345 427.165C73.1796 416.714 65.7261 406.263 58.2743 395.812C46.0711 378.702 33.8715 361.592 21.6756 344.482C21.6033 344.39 21.5495 344.285 21.5173 344.172C21.413 343.793 21.6913 343.571 22.0481 343.61C22.1985 343.632 22.3426 343.685 22.4708 343.767C22.599 343.848 22.7083 343.956 22.7915 344.083C29.6332 353.679 36.4733 363.27 43.3116 372.858C55.4514 389.883 67.5893 406.905 79.7256 423.926C80.4975 425.006 81.2694 426.092 82.0414 427.172C82.3586 427.616 82.6759 428.06 82.9877 428.504Z" fill="white"/>
<path d="M114.329 420.337C114.257 422.707 114.1 425.04 113.896 427.351C113.856 427.793 113.816 428.235 113.776 428.677L112.3 428.668C112.345 428.226 112.39 427.784 112.43 427.343C112.742 424.004 112.963 420.628 112.993 417.16C113.033 407.546 112.095 397.952 110.196 388.527C108.177 378.378 105.278 368.425 101.532 358.779C97.6008 348.606 92.8606 338.764 87.3574 329.347C87.2537 329.193 87.2075 329.008 87.227 328.824C87.2879 328.404 87.848 328.279 88.2668 328.681C88.3495 328.76 88.4207 328.85 88.4784 328.948C89.1593 330.119 89.8278 331.293 90.4838 332.47C95.7842 341.939 100.321 351.816 104.051 362.005C107.604 371.683 110.306 381.651 112.128 391.798C113.834 401.211 114.572 410.774 114.329 420.337Z" fill="white"/>
<path d="M447.824 238.275H308.651C305.75 238.361 302.913 237.415 300.645 235.604C300.469 235.47 300.355 235.272 300.326 235.053C300.296 234.834 300.355 234.613 300.489 234.437C300.623 234.262 300.821 234.147 301.04 234.117C301.259 234.088 301.48 234.146 301.656 234.28C303.632 235.87 306.115 236.697 308.651 236.608H447.824C451.138 236.605 454.316 235.287 456.659 232.944C459.003 230.601 460.321 227.425 460.325 224.111V139.132C460.321 135.819 459.003 132.643 456.659 130.3C454.316 127.957 451.138 126.639 447.824 126.635H308.651C305.337 126.639 302.159 127.957 299.816 130.3C297.472 132.643 296.154 135.819 296.15 139.132V189.12C296.15 189.341 296.062 189.553 295.906 189.709C295.75 189.865 295.538 189.953 295.317 189.953C295.096 189.953 294.884 189.865 294.727 189.709C294.571 189.553 294.483 189.341 294.483 189.12V139.132C294.488 135.377 295.982 131.777 298.638 129.122C301.294 126.467 304.895 124.973 308.651 124.969H447.824C451.58 124.973 455.181 126.467 457.837 129.122C460.493 131.777 461.987 135.377 461.991 139.132V224.111C461.987 227.866 460.493 231.466 457.837 234.122C455.181 236.777 451.58 238.27 447.824 238.275Z" fill="#3F3D56"/>
<path d="M632.833 286.596H264.482C264.261 286.596 264.049 286.508 263.892 286.352C263.736 286.195 263.648 285.984 263.648 285.763C263.648 285.542 263.736 285.33 263.892 285.174C264.049 285.017 264.261 284.93 264.482 284.93H632.833C636.147 284.926 639.324 283.608 641.668 281.265C644.011 278.922 645.329 275.746 645.333 272.433V14.1632C645.329 10.8499 644.011 7.67346 641.668 5.33065C639.324 2.98784 636.147 1.67 632.833 1.66625H241.147C237.833 1.67 234.656 2.98784 232.312 5.33065C229.969 7.67346 228.65 10.8499 228.647 14.1632V182.455C228.647 182.676 228.559 182.888 228.403 183.044C228.246 183.2 228.034 183.288 227.813 183.288C227.592 183.288 227.38 183.2 227.224 183.044C227.068 182.888 226.98 182.676 226.98 182.455V14.1632C226.984 10.4082 228.478 6.80815 231.134 4.15296C233.79 1.49777 237.391 0.00422718 241.147 0H632.833C636.589 0.00422718 640.19 1.49777 642.846 4.15296C645.502 6.80815 646.996 10.4082 647 14.1632V272.433C646.996 276.188 645.502 279.788 642.846 282.443C640.19 285.098 636.589 286.592 632.833 286.596Z" fill="#3F3D56"/>
<path d="M646.728 27.1396H227.541V28.8059H646.728V27.1396Z" fill="#3F3D56"/>
<path d="M243.375 21.2744C246.137 21.2744 248.375 19.0364 248.375 16.2756C248.375 13.5149 246.137 11.2769 243.375 11.2769C240.614 11.2769 238.375 13.5149 238.375 16.2756C238.375 19.0364 240.614 21.2744 243.375 21.2744Z" fill="#3F3D56"/>
<path d="M257.751 21.2744C260.512 21.2744 262.751 19.0364 262.751 16.2756C262.751 13.5149 260.512 11.2769 257.751 11.2769C254.989 11.2769 252.75 13.5149 252.75 16.2756C252.75 19.0364 254.989 21.2744 257.751 21.2744Z" fill="#3F3D56"/>
<path d="M272.127 21.2744C274.888 21.2744 277.127 19.0364 277.127 16.2756C277.127 13.5149 274.888 11.2769 272.127 11.2769C269.365 11.2769 267.126 13.5149 267.126 16.2756C267.126 19.0364 269.365 21.2744 272.127 21.2744Z" fill="#3F3D56"/>
<path d="M564.913 84.1458H306.567C303.141 84.1458 299.856 82.7853 297.433 80.3635C295.011 77.9418 293.65 74.6572 293.65 71.2323C293.65 67.8075 295.011 64.5228 297.433 62.1011C299.856 59.6794 303.141 58.3188 306.567 58.3188H564.913C568.339 58.3188 571.624 59.6794 574.047 62.1011C576.469 64.5228 577.83 67.8075 577.83 71.2323C577.83 74.6572 576.469 77.9418 574.047 80.3635C571.624 82.7853 568.339 84.1458 564.913 84.1458ZM306.567 59.9851C303.583 59.9851 300.722 61.1701 298.612 63.2793C296.502 65.3886 295.317 68.2494 295.317 71.2323C295.317 74.2153 296.502 77.076 298.612 79.1853C300.722 81.2946 303.583 82.4795 306.567 82.4795H564.913C567.897 82.4795 570.758 81.2946 572.868 79.1853C574.978 77.076 576.163 74.2153 576.163 71.2323C576.163 68.2494 574.978 65.3886 572.868 63.2793C570.758 61.1701 567.897 59.9851 564.913 59.9851H306.567Z" fill="#3F3D56"/>
<path d="M563.246 149.963H513.243C509.818 149.963 506.532 148.602 504.11 146.18C501.687 143.759 500.326 140.474 500.326 137.049C500.326 133.624 501.687 130.34 504.11 127.918C506.532 125.496 509.818 124.136 513.243 124.136H563.246C566.672 124.136 569.957 125.496 572.38 127.918C574.802 130.34 576.163 133.624 576.163 137.049C576.163 140.474 574.802 143.759 572.38 146.18C569.957 148.602 566.672 149.963 563.246 149.963Z" fill="#F44336"/>
<path d="M563.246 193.285H513.243C509.818 193.285 506.532 191.925 504.11 189.503C501.687 187.081 500.326 183.797 500.326 180.372C500.326 176.947 501.687 173.662 504.11 171.241C506.532 168.819 509.818 167.458 513.243 167.458H563.246C566.672 167.458 569.957 168.819 572.38 171.241C574.802 173.662 576.163 176.947 576.163 180.372C576.163 183.797 574.802 187.081 572.38 189.503C569.957 191.925 566.672 193.285 563.246 193.285Z" fill="#F44336"/>
<path d="M563.246 236.608H513.243C509.818 236.608 506.532 235.248 504.11 232.826C501.687 230.404 500.326 227.12 500.326 223.695C500.326 220.27 501.687 216.985 504.11 214.564C506.532 212.142 509.818 210.781 513.243 210.781H563.246C566.672 210.781 569.957 212.142 572.38 214.564C574.802 216.985 576.163 220.27 576.163 223.695C576.163 227.12 574.802 230.404 572.38 232.826C569.957 235.248 566.672 236.608 563.246 236.608Z" fill="#F44336"/>
<path d="M207.813 244.59C207.182 244.457 206.54 244.39 205.896 244.39C204.686 244.389 203.488 244.627 202.371 245.089C201.994 245.246 201.629 245.43 201.279 245.639L163.994 228.91L162.944 218.796L146.868 218.371L146.976 235.2C146.996 237.15 147.644 239.04 148.824 240.592C150.004 242.144 151.653 243.274 153.527 243.815L197.129 256.22C197.229 256.537 197.321 256.812 197.429 257.07C197.924 258.261 198.666 259.334 199.605 260.218C200.545 261.103 201.66 261.779 202.879 262.202C203.851 262.545 204.874 262.72 205.904 262.719C206.546 262.72 207.186 262.65 207.813 262.51C208.172 262.435 208.525 262.334 208.871 262.21V244.881C208.524 244.764 208.171 244.666 207.813 244.59Z" fill="#A0616A"/>
<path d="M105.877 420.084H116.094L120.954 380.688H105.875L105.877 420.084Z" fill="#A0616A"/>
<path d="M135.798 429.567L103.688 429.569L103.687 417.166L123.391 417.165C126.682 417.165 129.837 418.472 132.164 420.798C134.491 423.123 135.798 426.278 135.798 429.567Z" fill="#2F2E41"/>
<path d="M52.77 409.074L62.1621 413.095L82.1472 378.794L68.2866 372.858L52.77 409.074Z" fill="#A0616A"/>
<path d="M76.5395 429.569L47.0227 416.93L51.9073 405.529L70.0199 413.285C73.0445 414.58 75.4306 417.023 76.6533 420.077C77.8759 423.131 77.835 426.545 76.5396 429.569L76.5395 429.569Z" fill="#2F2E41"/>
<path d="M131.138 164.953C142.442 164.953 151.606 155.791 151.606 144.49C151.606 133.189 142.442 124.028 131.138 124.028C119.833 124.028 110.669 133.189 110.669 144.49C110.669 155.791 119.833 164.953 131.138 164.953Z" fill="#A0616A"/>
<path d="M116.35 410.452L105.103 408.31C104.179 408.139 103.353 407.626 102.791 406.872C102.229 406.118 101.973 405.18 102.074 404.245L109.532 331.548C109.604 330.854 109.424 330.158 109.026 329.586C108.628 329.013 108.037 328.602 107.362 328.427C106.687 328.253 105.972 328.325 105.346 328.633C104.719 328.94 104.224 329.461 103.95 330.102L71.3887 406.056C71.1929 406.512 70.9085 406.925 70.5518 407.271C70.1952 407.616 69.7734 407.887 69.311 408.069C68.8487 408.25 68.3549 408.338 67.8583 408.327C67.3618 408.316 66.8724 408.206 66.4185 408.004L57.2708 403.94C56.4168 403.564 55.7344 402.882 55.3578 402.029C54.9812 401.175 54.9378 400.212 55.236 399.328L77.5055 332.539C77.5682 332.351 77.6115 332.157 77.6349 331.96L84.8636 270.936C84.9424 270.27 85.1986 269.637 85.6054 269.104C86.0122 268.57 86.5547 268.156 87.1764 267.903L110.001 258.634C110.676 258.359 111.417 258.288 112.132 258.427C112.848 258.567 113.507 258.912 114.029 259.42L142.839 287.464C143.288 287.9 143.62 288.44 143.806 289.037C143.992 289.634 144.024 290.268 143.901 290.881L120.73 407.5C120.559 408.35 120.099 409.115 119.428 409.665C118.757 410.215 117.917 410.516 117.049 410.518C116.815 410.518 116.581 410.496 116.35 410.452Z" fill="#2F2E41"/>
<path d="M103.528 274.301C99.5407 269.686 96.6306 267.591 94.6404 267.921C92.6656 268.24 91.5264 270.998 90.3201 273.918C88.6737 277.904 86.8075 282.422 82.2077 282.775C81.4916 282.898 80.7553 282.817 80.083 282.541C79.4106 282.266 78.8294 281.807 78.4057 281.217C74.7875 275.837 83.4659 258.036 84.2588 256.436L83.8519 172.24C83.8463 171.56 84.0259 170.892 84.3714 170.308C84.7168 169.723 85.2151 169.243 85.8128 168.919C109.661 156.063 141.863 178.422 148.076 183.036C148.573 183.404 148.971 183.89 149.234 184.449C149.498 185.009 149.618 185.625 149.585 186.243C148.835 200.344 145.095 271.488 145.095 287.359C145.095 291.752 143.58 294.543 140.59 295.655C139.581 296.013 138.515 296.188 137.444 296.171C128.323 296.171 113.383 285.708 103.528 274.301Z" fill="#CCCCCC"/>
<path d="M136.81 233.418C136.311 233.094 135.898 232.655 135.604 232.138C135.311 231.621 135.146 231.041 135.124 230.446L133.508 192.734C133.409 190.413 134.139 188.131 135.568 186.298C136.998 184.465 139.032 183.201 141.309 182.731C143.586 182.261 145.955 182.616 147.994 183.732C150.033 184.849 151.607 186.655 152.436 188.826L164.526 220.499C164.879 221.428 164.85 222.459 164.444 223.366C164.038 224.273 163.288 224.982 162.359 225.338L140.208 233.789C139.653 234.003 139.055 234.082 138.463 234.017C137.872 233.953 137.305 233.747 136.81 233.418Z" fill="#CCCCCC"/>
<path d="M80.5177 292.343C79.4317 291.613 78.5191 290.654 77.8441 289.533C77.1692 288.412 76.7483 287.156 76.6111 285.855C76.474 284.554 76.6239 283.238 77.0503 282.001C77.4767 280.764 78.1692 279.636 79.0791 278.695L75.1704 191.296L94.5061 193.572L92.2616 278.869C93.7408 280.502 94.5695 282.62 94.5906 284.823C94.6118 287.026 93.8239 289.16 92.3763 290.821C90.9287 292.482 88.922 293.554 86.7364 293.835C84.5507 294.115 82.3381 293.585 80.5177 292.343H80.5177Z" fill="#A0616A"/>
<path d="M67.0909 214.569C66.7404 214.089 66.5106 213.531 66.4209 212.943C66.3311 212.356 66.3841 211.755 66.5753 211.192L78.5156 175.382C79.2506 173.177 80.7465 171.306 82.7354 170.103C84.7244 168.9 87.0767 168.444 89.3714 168.816C91.666 169.188 93.7533 170.365 95.2596 172.135C96.766 173.905 97.5931 176.153 97.593 178.477V212.377C97.5919 213.371 97.1965 214.324 96.4934 215.027C95.7903 215.73 94.8371 216.125 93.8428 216.126H70.1332C69.5384 216.129 68.9515 215.99 68.4221 215.719C67.8926 215.448 67.436 215.053 67.0909 214.569Z" fill="#CCCCCC"/>
<path d="M117.92 158.253C117.153 158.854 116.196 159.157 115.224 159.109C114.252 159.061 113.33 158.663 112.627 157.99C108.24 153.89 104.538 148.989 102.664 143.312C100.517 136.807 101.066 129.188 105.177 123.708C108.653 119.076 114.154 116.459 119.573 114.413C121.688 113.519 123.923 112.939 126.207 112.691C128.513 112.452 130.824 113.1 132.669 114.505C133.568 115.223 134.23 116.194 134.568 117.294C134.906 118.393 134.905 119.569 134.565 120.667C137.344 118.144 140.735 116.391 144.4 115.581C146.721 114.966 149.173 115.068 151.434 115.873C154.577 117.165 156.618 120.32 157.559 123.584C158.336 126.074 158.399 128.733 157.74 131.257C157.402 132.512 156.804 133.682 155.985 134.691C155.166 135.7 154.144 136.526 152.985 137.116C150.11 138.47 146.698 137.959 143.692 136.928C140.686 135.897 137.835 134.376 134.726 133.718C131.617 133.06 128.026 133.444 125.826 135.737C124.277 137.352 123.667 139.623 123.113 141.791L120.23 153.066C119.912 154.709 119.303 156.281 118.433 157.71C118.287 157.913 118.114 158.096 117.92 158.253Z" fill="#2F2E41"/>
<path d="M257.64 227.802V266.259L258.165 266.642V227.86C257.992 227.828 257.816 227.809 257.64 227.802ZM313.451 202.641L286.85 183.338C284.913 181.939 282.5 181.364 280.141 181.738C277.781 182.113 275.665 183.407 274.257 185.337L258.698 206.782L257.64 208.232V290.92C257.637 293.027 256.799 295.047 255.309 296.537C253.818 298.027 251.797 298.865 249.69 298.868H245.273L247.831 299.384C248.42 299.507 249.021 299.569 249.623 299.567C251.047 299.567 252.45 299.231 253.719 298.585C254.988 297.939 256.086 297.002 256.923 295.852L258.007 294.352L315.451 215.222C316.849 213.286 317.423 210.876 317.048 208.519C316.674 206.161 315.38 204.048 313.451 202.641ZM314.593 214.597L258.665 291.636L258.073 292.453L258.015 292.536C258.116 292.003 258.166 291.462 258.165 290.92V209.315L258.698 208.582L275.124 185.962C276.365 184.26 278.229 183.119 280.31 182.788C282.39 182.457 284.517 182.963 286.225 184.196L312.826 203.5C314.529 204.739 315.672 206.603 316.003 208.683C316.334 210.763 315.827 212.89 314.593 214.597V214.597Z" fill="#CCCCCC"/>
<path d="M286.306 234.841C284.816 234.841 283.365 234.368 282.161 233.489L267.212 222.645C265.694 221.54 264.675 219.879 264.38 218.024C264.086 216.17 264.538 214.275 265.64 212.754L276.488 197.81C277.591 196.29 279.253 195.27 281.109 194.975C282.964 194.68 284.861 195.134 286.381 196.237L301.33 207.082C302.849 208.186 303.867 209.848 304.162 211.702C304.457 213.556 304.004 215.452 302.903 216.972L292.055 231.917C291.51 232.671 290.821 233.31 290.028 233.797C289.235 234.283 288.353 234.608 287.434 234.752C287.061 234.811 286.684 234.841 286.306 234.841Z" fill="#CCCCCC"/>
<path opacity="0.5" d="M262.566 269.255C261.587 269.256 260.634 268.945 259.843 268.368L257.222 266.468V227.358L257.663 227.384C258.058 227.408 258.448 227.48 258.825 227.599C259.296 227.748 259.739 227.973 260.137 228.264L279.012 241.961C279.506 242.32 279.926 242.773 280.245 243.294C280.565 243.815 280.779 244.394 280.874 244.998C280.97 245.602 280.946 246.218 280.803 246.813C280.66 247.407 280.402 247.967 280.042 248.462L266.345 267.332C265.988 267.828 265.537 268.248 265.016 268.568C264.495 268.888 263.916 269.101 263.312 269.196C263.066 269.235 262.816 269.255 262.566 269.255Z" fill="#E6E6E6"/>
<path d="M249.689 182.288H216.821C214.433 182.291 212.143 183.241 210.454 184.929C208.765 186.617 207.815 188.907 207.812 191.294V290.92C207.815 293.307 208.765 295.596 210.454 297.285C212.143 298.973 214.433 299.923 216.821 299.926H249.689C251.472 299.923 253.213 299.392 254.694 298.4C256.174 297.408 257.327 295.999 258.007 294.352C258.223 293.841 258.391 293.311 258.507 292.769C258.584 292.395 258.637 292.017 258.665 291.636C258.689 291.398 258.7 291.159 258.698 290.92V191.294C258.695 188.907 257.745 186.617 256.056 184.929C254.368 183.241 252.078 182.291 249.689 182.288ZM257.64 290.92C257.637 293.027 256.799 295.047 255.308 296.537C253.818 298.027 251.797 298.865 249.689 298.868H216.821C214.713 298.865 212.693 298.027 211.202 296.537C209.712 295.047 208.873 293.027 208.871 290.92V191.294C208.873 189.187 209.712 187.167 211.202 185.677C212.693 184.187 214.713 183.349 216.821 183.346H249.689C251.797 183.349 253.818 184.187 255.308 185.677C256.799 187.167 257.637 189.187 257.64 191.294V290.92Z" fill="#3F3D56"/>
<path d="M242.491 225.625H224.021C222.143 225.623 220.342 224.876 219.014 223.549C217.686 222.221 216.939 220.421 216.937 218.544V200.079C216.939 198.202 217.686 196.402 219.014 195.074C220.342 193.746 222.143 193 224.021 192.998H242.491C244.369 193 246.169 193.746 247.497 195.074C248.825 196.402 249.572 198.202 249.574 200.079V218.544C249.572 220.421 248.825 222.221 247.497 223.549C246.169 224.876 244.369 225.623 242.491 225.625Z" fill="#F44336"/>
<path opacity="0.5" d="M242.491 266.958H224.021C222.143 266.956 220.342 266.21 219.014 264.882C217.686 263.554 216.939 261.754 216.937 259.877V241.412C216.939 239.535 217.686 237.735 219.014 236.407C220.342 235.079 222.143 234.333 224.021 234.331H242.491C244.369 234.333 246.169 235.079 247.497 236.407C248.825 237.735 249.572 239.535 249.574 241.412V259.877C249.572 261.754 248.825 263.554 247.497 264.882C246.169 266.21 244.369 266.956 242.491 266.958Z" fill="#F44336"/>
<path d="M233.256 276.082C231.893 276.081 230.56 276.485 229.427 277.242C228.293 278 227.41 279.076 226.888 280.335C226.366 281.593 226.23 282.979 226.496 284.315C226.762 285.652 227.418 286.88 228.382 287.843C229.346 288.807 230.574 289.463 231.911 289.729C233.247 289.995 234.633 289.858 235.893 289.337C237.152 288.816 238.228 287.932 238.986 286.799C239.743 285.666 240.147 284.334 240.147 282.972C240.145 281.145 239.418 279.394 238.126 278.102C236.834 276.81 235.083 276.084 233.256 276.082ZM233.256 288.795C232.103 288.794 230.976 288.452 230.018 287.811C229.06 287.17 228.313 286.259 227.873 285.194C227.432 284.128 227.317 282.957 227.543 281.826C227.769 280.696 228.325 279.658 229.141 278.844C229.957 278.029 230.996 277.475 232.127 277.251C233.258 277.027 234.43 277.143 235.495 277.585C236.559 278.027 237.469 278.774 238.109 279.733C238.749 280.692 239.09 281.819 239.089 282.972C239.086 284.516 238.47 285.997 237.376 287.089C236.283 288.18 234.801 288.794 233.256 288.795Z" fill="#3F3D56"/>
<path d="M215.331 430H7.57584C7.31317 429.999 7.06151 429.894 6.87604 429.708C6.69057 429.523 6.58643 429.271 6.58643 429.008C6.58643 428.745 6.69057 428.494 6.87604 428.308C7.06151 428.122 7.31317 428.017 7.57584 428.016H215.331C215.593 428.017 215.845 428.122 216.03 428.308C216.216 428.494 216.32 428.745 216.32 429.008C216.32 429.271 216.216 429.523 216.03 429.708C215.845 429.894 215.593 429.999 215.331 430Z" fill="#3F3D56"/>
</g>
<defs>
<clipPath id="clip0">
<rect width="647" height="430" fill="white"/>
</clipPath>
</defs>
</svg>
