<svg width="665" height="374" viewBox="0 0 665 374" fill="none" xmlns="http://www.w3.org/2000/svg">
<path d="M50.0324 373.813L49.3326 372.521C58.7162 367.455 70.3947 361.149 76.4945 350.802C82.5075 340.602 82.6424 326.75 76.8466 314.653C71.9142 304.358 62.8537 295.134 50.6448 287.979C48.2366 286.568 45.7086 285.23 43.2638 283.937C37.3545 280.81 31.2439 277.577 26.2054 272.99C19.2658 266.672 14.0151 256.069 17.9286 246.625C19.2157 243.611 21.3235 241.017 24.0128 239.139C26.7021 237.26 29.8651 236.172 33.1426 235.998L33.2256 237.465C30.223 237.624 27.3251 238.62 24.8609 240.34C22.3967 242.06 20.4647 244.436 19.2843 247.197C15.6476 255.973 20.6371 265.932 27.197 271.904C32.0977 276.366 38.1246 279.555 43.9529 282.639C46.4116 283.939 48.9541 285.285 51.3899 286.712C63.8528 294.016 73.1147 303.459 78.1741 314.019C84.1783 326.551 84.0208 340.931 77.7627 351.547C71.4551 362.247 59.5769 368.661 50.0324 373.813Z" fill="#F1F1F1"/>
<path d="M42.4689 243.741C49.5801 243.741 55.3449 240.946 55.3449 237.497C55.3449 234.049 49.5801 231.253 42.4689 231.253C35.3576 231.253 29.5928 234.049 29.5928 237.497C29.5928 240.946 35.3576 243.741 42.4689 243.741Z" fill="#F1F1F1"/>
<path d="M52.7696 284.877C59.8809 284.877 65.6457 282.081 65.6457 278.633C65.6457 275.185 59.8809 272.389 52.7696 272.389C45.6584 272.389 39.8936 275.185 39.8936 278.633C39.8936 282.081 45.6584 284.877 52.7696 284.877Z" fill="#F1F1F1"/>
<path d="M29.2252 291.488C36.3365 291.488 42.1013 288.692 42.1013 285.244C42.1013 281.795 36.3365 279 29.2252 279C22.1139 279 16.3491 281.795 16.3491 285.244C16.3491 288.692 22.1139 291.488 29.2252 291.488Z" fill="#F1F1F1"/>
<path d="M66.0138 326.012C73.1251 326.012 78.8899 323.217 78.8899 319.768C78.8899 316.32 73.1251 313.524 66.0138 313.524C58.9025 313.524 53.1377 316.32 53.1377 319.768C53.1377 323.217 58.9025 326.012 66.0138 326.012Z" fill="#F1F1F1"/>
<path d="M91.7662 326.012C98.8775 326.012 104.642 323.217 104.642 319.768C104.642 316.32 98.8775 313.524 91.7662 313.524C84.655 313.524 78.8901 316.32 78.8901 319.768C78.8901 323.217 84.655 326.012 91.7662 326.012Z" fill="#F1F1F1"/>
<path d="M665 11.334H250.908V207.504H665V11.334Z" fill="#E6E6E6"/>
<path d="M653.159 28.1558H262.749V191.827H653.159V28.1558Z" fill="white"/>
<path d="M664.824 0H250.731V17.5629H664.824V0Z" fill="#F44336"/>
<path d="M263.805 11.3791C265.605 11.3791 267.065 9.92167 267.065 8.12387C267.065 6.32606 265.605 4.86865 263.805 4.86865C262.004 4.86865 260.544 6.32606 260.544 8.12387C260.544 9.92167 262.004 11.3791 263.805 11.3791Z" fill="white"/>
<path d="M276.181 11.3791C277.981 11.3791 279.441 9.92167 279.441 8.12387C279.441 6.32606 277.981 4.86865 276.181 4.86865C274.38 4.86865 272.92 6.32606 272.92 8.12387C272.92 9.92167 274.38 11.3791 276.181 11.3791Z" fill="white"/>
<path d="M288.557 11.3791C290.358 11.3791 291.818 9.92167 291.818 8.12387C291.818 6.32606 290.358 4.86865 288.557 4.86865C286.756 4.86865 285.296 6.32606 285.296 8.12387C285.296 9.92167 286.756 11.3791 288.557 11.3791Z" fill="white"/>
<path d="M437.369 66.998C436.95 66.998 436.548 67.1642 436.252 67.46C435.956 67.7557 435.79 68.1568 435.79 68.5751C435.79 68.9933 435.956 69.3944 436.252 69.6902C436.548 69.9859 436.95 70.1521 437.369 70.1521H524.047C524.465 70.1521 524.867 69.9859 525.164 69.6902C525.46 69.3944 525.626 68.9933 525.626 68.5751C525.626 68.1568 525.46 67.7557 525.164 67.46C524.867 67.1642 524.465 66.998 524.047 66.998H437.369Z" fill="#E6E6E6"/>
<path d="M437.369 76.4609C436.951 76.4618 436.55 76.6284 436.254 76.924C435.959 77.2197 435.793 77.6203 435.793 78.038C435.793 78.4556 435.959 78.8562 436.254 79.1519C436.55 79.4475 436.951 79.6141 437.369 79.615H481.62C482.038 79.6141 482.439 79.4475 482.735 79.1519C483.03 78.8562 483.196 78.4556 483.196 78.038C483.196 77.6203 483.03 77.2197 482.735 76.924C482.439 76.6284 482.038 76.4618 481.62 76.4609H437.369Z" fill="#E6E6E6"/>
<path d="M435.188 122.264C434.769 122.264 434.367 122.43 434.071 122.726C433.775 123.021 433.608 123.422 433.608 123.841C433.608 124.259 433.775 124.66 434.071 124.956C434.367 125.252 434.769 125.418 435.188 125.418H597.709C598.127 125.418 598.529 125.252 598.825 124.956C599.122 124.66 599.288 124.259 599.288 123.841C599.288 123.422 599.122 123.021 598.825 122.726C598.529 122.43 598.127 122.264 597.709 122.264H435.188Z" fill="#E6E6E6"/>
<path d="M435.188 131.727C434.77 131.727 434.369 131.894 434.073 132.19C433.778 132.485 433.612 132.886 433.612 133.304C433.612 133.721 433.778 134.122 434.073 134.418C434.369 134.713 434.77 134.88 435.188 134.881H555.282C555.7 134.88 556.101 134.713 556.396 134.418C556.692 134.122 556.858 133.721 556.858 133.304C556.858 132.886 556.692 132.485 556.396 132.19C556.101 131.894 555.7 131.727 555.282 131.727H435.188Z" fill="#E6E6E6"/>
<path d="M435.188 140.976C434.77 140.976 434.369 141.143 434.073 141.439C433.778 141.734 433.612 142.135 433.612 142.553C433.612 142.97 433.778 143.371 434.073 143.667C434.369 143.962 434.77 144.129 435.188 144.13H597.708C598.127 144.129 598.528 143.962 598.823 143.667C599.119 143.371 599.285 142.97 599.285 142.553C599.285 142.135 599.119 141.734 598.823 141.439C598.528 141.143 598.127 140.976 597.708 140.976H435.188Z" fill="#E6E6E6"/>
<path d="M435.188 150.438C434.77 150.439 434.369 150.606 434.073 150.902C433.778 151.197 433.612 151.598 433.612 152.016C433.612 152.433 433.778 152.834 434.073 153.129C434.369 153.425 434.77 153.592 435.188 153.593H555.282C555.7 153.592 556.101 153.425 556.396 153.129C556.692 152.834 556.858 152.433 556.858 152.016C556.858 151.598 556.692 151.197 556.396 150.902C556.101 150.606 555.7 150.439 555.282 150.438H435.188Z" fill="#E6E6E6"/>
<path d="M350.222 128.664C357.818 128.664 363.976 122.515 363.976 114.931C363.976 107.347 357.818 101.199 350.222 101.199C342.625 101.199 336.467 107.347 336.467 114.931C336.467 122.515 342.625 128.664 350.222 128.664Z" fill="#A0616A"/>
<path d="M345.866 103.946C345.866 103.946 352.285 105.662 355.609 106.349C358.933 107.036 358.589 105.09 358.589 105.09C358.589 105.09 362.945 105.662 362.715 105.205C362.486 104.747 364.549 102.344 362.142 99.5974C359.735 96.851 360.423 94.7912 360.423 94.7912H358.36L357.787 93.9901H354.577C354.577 93.9901 351.029 90.8837 344.724 91.7992C338.42 92.7147 330.965 95.1344 330.277 98.9108C330.184 99.423 330.061 99.9921 329.918 100.593C328.194 107.859 331.857 114.657 335.656 121.089C336.59 122.67 341.106 126.117 340.99 123.752C340.875 121.387 336.925 116.076 339.676 115.733C342.427 115.389 347.127 108.409 345.866 103.946Z" fill="#2F2E41"/>
<path d="M342.419 159.325C339.763 159.113 337.13 158.681 334.546 158.034L334.691 155.296L335.896 133.521L335.906 133.354H360.136L363.938 153.403L364.451 156.108C363.448 156.498 362.433 156.865 361.396 157.188C361.385 157.188 361.385 157.199 361.374 157.199C359.936 157.644 358.475 158.034 357.003 158.357C355.045 158.778 353.065 159.083 351.071 159.27C349.53 159.422 347.982 159.497 346.433 159.492C345.095 159.492 343.745 159.437 342.419 159.325Z" fill="#F44336"/>
<path d="M326.841 155.451C325.838 155.017 324.868 154.55 323.909 154.06L323.496 153.848C323.218 153.704 322.928 153.548 322.649 153.392C322.27 153.18 321.902 152.969 321.545 152.757C321.199 152.557 320.843 152.345 320.497 152.134C320.475 152.123 320.464 152.112 320.441 152.112C319.237 151.344 318.055 150.553 316.918 149.696C316.728 149.551 316.539 149.407 316.349 149.262L316.148 146.056L316.438 145.878L335.896 133.521L336.163 133.354L336.185 133.343L338.928 133.354V143.551C340.478 145.789 341.526 150.475 342.173 156.609C342.262 157.488 342.34 158.39 342.419 159.325C339.763 159.113 337.13 158.681 334.546 158.034C334.268 157.978 334 157.911 333.721 157.833C332.096 157.409 330.496 156.896 328.927 156.297C328.447 156.119 327.979 155.93 327.51 155.741L327.466 155.718C327.265 155.629 327.042 155.54 326.841 155.451Z" fill="#2F2E41"/>
<path d="M322.649 153.392C322.269 153.181 321.901 152.969 321.545 152.758C321.199 152.557 320.842 152.346 320.497 152.134C320.474 152.123 320.464 152.112 320.441 152.112C319.237 151.344 318.055 150.553 316.918 149.696C316.728 149.552 316.538 149.407 316.349 149.262C316.26 149.184 316.171 149.117 316.07 149.039C315.357 148.494 314.665 147.926 313.996 147.325C313.963 147.303 313.94 147.269 313.907 147.247C314.582 146.729 315.34 146.326 316.148 146.056L316.94 146.29L322.582 147.982L322.615 150.264L322.649 153.392Z" fill="#2F2E41"/>
<path d="M370.16 153.425C369.825 153.604 369.491 153.782 369.157 153.949C369.078 153.993 369.012 154.027 368.945 154.06C368.498 154.283 368.064 154.505 367.618 154.717C367.607 154.728 367.584 154.728 367.584 154.739C367.562 154.75 367.529 154.761 367.507 154.772C366.503 155.251 365.488 155.696 364.451 156.108C363.448 156.498 362.433 156.865 361.396 157.188C361.385 157.188 361.385 157.199 361.374 157.199C359.935 157.644 358.475 158.034 357.002 158.357C356.986 157.442 357.106 156.531 357.36 155.652L357.371 155.496L358.33 140L357.047 133.355L360.727 132.809L380.965 143.685C380.965 143.685 378.735 145.911 369.58 150.654C368.771 151.073 369.959 152.468 370.16 153.425Z" fill="#2F2E41"/>
<path d="M350.826 156.598C349.376 156.732 347.904 156.798 346.433 156.798C345.005 156.798 343.589 156.743 342.173 156.609C342.262 157.489 342.34 158.39 342.419 159.325C343.745 159.437 345.095 159.492 346.433 159.492C347.982 159.497 349.53 159.422 351.071 159.27C353.065 159.083 355.045 158.778 357.003 158.357C356.986 157.442 357.107 156.531 357.36 155.652L357.371 155.496C355.218 156.019 353.031 156.387 350.826 156.598ZM392.962 94.1257C390.606 87.3686 386.802 81.2058 381.815 76.0672C376.828 70.9286 370.778 66.9379 364.088 64.3733C357.397 61.8087 350.227 60.732 343.077 61.2182C335.926 61.7044 328.969 63.7419 322.688 67.1885C316.408 70.6352 310.956 75.408 306.713 81.1742C302.47 86.9405 299.538 93.5613 298.121 100.575C296.705 107.589 296.837 114.827 298.51 121.784C300.183 128.741 303.356 135.25 307.808 140.858C308.254 141.414 308.711 141.971 309.18 142.505C309.224 142.55 309.246 142.583 309.28 142.616C310.431 143.942 311.656 145.202 312.948 146.39C313.261 146.679 313.584 146.969 313.907 147.247C313.941 147.269 313.963 147.303 313.996 147.325C314.665 147.926 315.357 148.494 316.07 149.039C316.171 149.117 316.26 149.184 316.349 149.262C316.539 149.407 316.728 149.552 316.918 149.696C318.055 150.553 319.237 151.344 320.441 152.112C320.464 152.112 320.475 152.123 320.497 152.134C320.843 152.346 321.199 152.557 321.545 152.758C321.902 152.969 322.27 153.181 322.649 153.392C322.928 153.548 323.217 153.704 323.496 153.848L323.909 154.06C324.868 154.55 325.838 155.017 326.841 155.451C327.042 155.541 327.265 155.63 327.466 155.719L327.51 155.741C327.979 155.93 328.447 156.119 328.927 156.297C330.495 156.896 332.096 157.409 333.721 157.834C334 157.912 334.268 157.978 334.546 158.034C337.13 158.681 339.763 159.113 342.418 159.325C343.745 159.437 345.094 159.492 346.433 159.492C347.982 159.497 349.53 159.422 351.071 159.27C353.065 159.083 355.045 158.778 357.003 158.357C358.475 158.034 359.936 157.644 361.374 157.199C361.385 157.199 361.385 157.188 361.396 157.188C362.433 156.865 363.448 156.498 364.451 156.108C365.488 155.696 366.503 155.251 367.507 154.772C367.529 154.761 367.562 154.75 367.584 154.739C367.584 154.728 367.607 154.728 367.618 154.717C368.064 154.505 368.499 154.283 368.945 154.06C369.012 154.027 369.078 153.993 369.157 153.949C369.491 153.782 369.825 153.604 370.16 153.425C370.183 153.414 370.193 153.403 370.216 153.392C371.097 152.902 371.967 152.39 372.825 151.845C373.059 151.7 373.294 151.555 373.528 151.388C373.873 151.177 374.208 150.943 374.531 150.709C374.966 150.409 375.401 150.097 375.825 149.774C375.966 149.684 376.1 149.583 376.226 149.474C377.263 148.694 378.266 147.871 379.225 147.002C386.497 140.534 391.684 132.057 394.129 122.645C396.574 113.232 396.168 103.308 392.962 94.1258L392.962 94.1257ZM378.389 144.13C377.182 145.264 375.917 146.334 374.598 147.336C374.308 147.559 374.007 147.782 373.706 147.982C373.416 148.205 373.126 148.416 372.825 148.616C372.569 148.795 372.313 148.973 372.045 149.14C372.022 149.162 371.989 149.173 371.967 149.195C371.777 149.329 371.576 149.451 371.387 149.574C370.796 149.941 370.183 150.309 369.581 150.654C369.436 150.732 369.302 150.821 369.157 150.898C369.079 150.943 369.001 150.988 368.911 151.032C368.577 151.221 368.242 151.388 367.908 151.566C367.863 151.6 367.808 151.611 367.763 151.644C367.746 151.647 367.731 151.655 367.718 151.667C367.484 151.789 367.25 151.9 367.016 152.012C366.815 152.112 366.626 152.212 366.425 152.301C365.611 152.691 364.775 153.058 363.938 153.403C363.058 153.759 362.166 154.082 361.262 154.383C361.039 154.461 360.805 154.55 360.571 154.617C359.511 154.95 358.453 155.251 357.371 155.496C355.218 156.019 353.031 156.387 350.826 156.598C349.376 156.732 347.904 156.798 346.433 156.798C345.005 156.798 343.589 156.743 342.173 156.609C339.647 156.378 337.145 155.939 334.691 155.296C334.602 155.273 334.502 155.251 334.413 155.229C332.4 154.705 330.429 154.035 328.514 153.225C328.414 153.181 328.302 153.147 328.213 153.103C328.101 153.058 328.001 153.025 327.912 152.98C327.8 152.936 327.7 152.891 327.6 152.847C326.764 152.479 325.95 152.078 325.136 151.667L324.756 151.466C324.032 151.088 323.318 150.698 322.615 150.264C322.37 150.13 322.114 149.975 321.868 149.819C321.59 149.652 321.311 149.474 321.043 149.295C320.977 149.251 320.91 149.206 320.843 149.162C320.218 148.739 319.583 148.316 318.981 147.859C318.557 147.548 318.144 147.247 317.732 146.924C317.464 146.724 317.197 146.513 316.94 146.29C316.773 146.167 316.606 146.023 316.438 145.878C316.215 145.689 315.992 145.5 315.77 145.299C315.424 145.021 315.1 144.709 314.788 144.42C313.532 143.265 312.345 142.038 311.231 140.746C310.852 140.323 310.495 139.9 310.15 139.455C310.069 139.367 309.995 139.274 309.927 139.177C304.313 132.102 300.883 123.549 300.056 114.561C299.228 105.574 301.039 96.5399 305.266 88.562C309.494 80.5841 315.956 74.007 323.864 69.6331C331.771 65.2592 340.783 63.2776 349.8 63.93C358.817 64.5824 367.449 67.8407 374.642 73.3073C381.836 78.7739 387.28 86.2124 390.311 94.7155C393.342 103.219 393.829 112.419 391.712 121.193C389.595 129.968 384.966 137.938 378.389 144.13L378.389 144.13Z" fill="#3F3D56"/>
<path d="M120.252 364.856L129.273 364.856L133.564 330.12L120.251 330.12L120.252 364.856Z" fill="#A0616A"/>
<path d="M117.952 361.916L135.716 361.916H135.717C138.719 361.916 141.599 363.107 143.722 365.226C145.845 367.346 147.038 370.22 147.038 373.218V373.585L117.952 373.586L117.952 361.916Z" fill="#2F2E41"/>
<path d="M154.098 364.856L163.119 364.856L167.41 330.12L154.097 330.12L154.098 364.856Z" fill="#A0616A"/>
<path d="M151.797 361.916L169.562 361.916H169.563C172.565 361.916 175.445 363.107 177.568 365.226C179.691 367.346 180.884 370.22 180.884 373.218V373.585L151.798 373.586L151.797 361.916Z" fill="#2F2E41"/>
<path d="M92.882 227.597C93.6203 226.808 94.1763 225.867 94.5108 224.84C94.8452 223.813 94.9501 222.725 94.818 221.654C94.6859 220.582 94.32 219.552 93.7461 218.637C93.1722 217.721 92.4043 216.943 91.4964 216.356L97.7638 190.863L84.8934 195.441L80.9148 218.948C80.0282 220.536 79.7559 222.394 80.1495 224.169C80.543 225.944 81.5752 227.513 83.0503 228.579C84.5254 229.645 86.341 230.134 88.1531 229.953C89.9651 229.772 91.6477 228.934 92.882 227.597Z" fill="#9E616A"/>
<path d="M188.637 225.394C187.898 224.604 187.342 223.663 187.008 222.636C186.673 221.609 186.569 220.522 186.701 219.45C186.833 218.378 187.199 217.348 187.773 216.433C188.347 215.518 189.114 214.739 190.022 214.152L183.755 188.659L196.625 193.238L200.604 216.744C201.491 218.332 201.763 220.19 201.369 221.965C200.976 223.74 199.944 225.31 198.468 226.376C196.993 227.442 195.178 227.931 193.366 227.75C191.554 227.569 189.871 226.731 188.637 225.394Z" fill="#9E616A"/>
<path d="M104.75 209.728L117.254 355.954L135.548 354.289L142.87 241.276L149.387 286.024L150.692 357.105L167.247 356.003L176.44 279.535L174.185 205.478L111.337 199.125L104.75 209.728Z" fill="#2F2E41"/>
<path d="M139.144 76.6653C149.623 76.6653 158.117 68.185 158.117 57.724C158.117 47.263 149.623 38.7827 139.144 38.7827C128.666 38.7827 120.172 47.263 120.172 57.724C120.172 68.185 128.666 76.6653 139.144 76.6653Z" fill="#A0616A"/>
<path d="M133.136 42.5708C133.136 42.5708 141.99 44.9384 146.575 45.8855C151.16 46.8326 150.686 44.1492 150.686 44.1492C150.686 44.1492 156.694 44.9384 156.378 44.307C156.061 43.6757 158.907 40.361 155.587 36.5727C152.267 32.7844 153.216 29.9432 153.216 29.9432H150.37L149.579 28.8383H145.152C145.152 28.8383 140.258 24.5536 131.562 25.8163C122.866 27.0791 112.583 30.4168 111.634 35.6256C111.505 36.3322 111.336 37.1171 111.139 37.9461C108.761 47.9683 113.814 57.3455 119.054 66.2173C120.342 68.3977 126.571 73.1522 126.412 69.8902C126.252 66.6282 120.804 59.3022 124.599 58.8287C128.393 58.3552 134.875 48.7267 133.136 42.5708Z" fill="#2F2E41"/>
<path d="M119.402 83.1353H152.815L176.44 207.699C176.44 207.699 155.843 209.457 144.07 213.865C132.298 218.272 112.728 203.797 112.728 203.797L119.402 83.1353Z" fill="#F44336"/>
<path d="M123.573 97.2021V83.1353L119.79 83.1123L92.1489 100.657L98.1467 196.785C98.1467 196.785 105.245 228.854 116.013 228.521C126.78 228.189 135.082 113.863 123.573 97.2021Z" fill="#2F2E41"/>
<path d="M101.028 103.313L92.149 100.658C92.149 100.658 85.5762 102.579 85.5762 109.19C85.5762 115.801 79.9131 209.728 79.9131 209.728L97.9034 211.315L101.763 163.547L101.028 103.313Z" fill="#2F2E41"/>
<path d="M150.324 92.2946L148.554 83.1355L153.635 82.3779L172.03 89.7236C172.03 89.7236 188.584 210.559 181.227 214.232C173.869 217.905 168.901 215.06 168.901 215.06C168.901 215.06 144.7 125.938 148.984 113.891L150.324 92.2946Z" fill="#2F2E41"/>
<path d="M159.154 91.5597L162.293 90.1956C162.293 90.1956 171.507 85.6371 176.735 94.8422C181.963 104.047 200.357 206.886 200.357 206.886L185.222 209.728L173.907 172.718L159.154 91.5597Z" fill="#2F2E41"/>
<path d="M281.067 374H0.735776C0.540636 374 0.353488 373.922 0.215503 373.785C0.0775185 373.647 0 373.46 0 373.265C0 373.071 0.0775185 372.884 0.215503 372.746C0.353488 372.608 0.540636 372.531 0.735776 372.531H281.067C281.262 372.531 281.449 372.608 281.587 372.746C281.725 372.884 281.802 373.071 281.802 373.265C281.802 373.46 281.725 373.647 281.587 373.785C281.449 373.922 281.262 374 281.067 374Z" fill="#CACACA"/>
</svg>
