<svg width="699" height="439" viewBox="0 0 699 439" fill="none" xmlns="http://www.w3.org/2000/svg">
<g clip-path="url(#clip0)">
<path d="M699 180.302H697.819V147.988C697.819 145.532 697.335 143.1 696.394 140.831C695.454 138.561 694.075 136.5 692.337 134.763C690.599 133.026 688.536 131.649 686.265 130.709C683.994 129.769 681.56 129.285 679.102 129.285H610.586C608.128 129.285 605.694 129.769 603.423 130.709C601.152 131.649 599.088 133.026 597.35 134.763C595.612 136.5 594.234 138.561 593.293 140.831C592.352 143.1 591.868 145.532 591.868 147.988V325.265C591.868 327.722 592.352 330.154 593.293 332.423C594.234 334.692 595.612 336.754 597.35 338.49C599.088 340.227 601.152 341.605 603.423 342.544C605.694 343.484 608.128 343.968 610.586 343.968H679.102C681.56 343.968 683.994 343.484 686.265 342.544C688.536 341.605 690.599 340.227 692.337 338.49C694.075 336.754 695.454 334.692 696.394 332.423C697.335 330.154 697.819 327.722 697.819 325.265V203.304H699V180.302Z" fill="#3F3D56"/>
<path d="M693.836 149.087V326.107C693.836 329.811 692.363 333.364 689.742 335.984C687.12 338.603 683.564 340.075 679.856 340.075H611.011C609.175 340.075 607.358 339.714 605.662 339.012C603.966 338.309 602.426 337.28 601.128 335.983C599.831 334.686 598.801 333.146 598.099 331.451C597.397 329.757 597.036 327.941 597.037 326.107V149.087C597.037 145.384 598.509 141.832 601.13 139.214C603.751 136.595 607.305 135.124 611.011 135.124H619.363C618.953 136.131 618.797 137.224 618.909 138.306C619.021 139.388 619.397 140.425 620.004 141.328C620.611 142.231 621.431 142.97 622.391 143.482C623.352 143.994 624.423 144.262 625.512 144.263H664.765C665.854 144.265 666.928 143.999 667.89 143.488C668.852 142.977 669.673 142.237 670.281 141.334C670.889 140.43 671.264 139.391 671.375 138.308C671.485 137.225 671.326 136.131 670.913 135.124H679.856C683.563 135.124 687.118 136.595 689.74 139.213C692.361 141.831 693.835 145.383 693.836 149.087Z" fill="#D0CDE1"/>
<path d="M680.803 225.753H600.772V247.332H680.803V225.753Z" fill="#F21313"/>
<path d="M683.979 243.524H606.489C605.983 243.524 605.499 243.323 605.142 242.966C604.784 242.609 604.584 242.125 604.583 241.62V222.58C604.584 222.075 604.784 221.591 605.142 221.235C605.499 220.878 605.983 220.677 606.489 220.676H683.979C684.484 220.677 684.968 220.878 685.325 221.235C685.683 221.591 685.884 222.075 685.884 222.58V241.62C685.884 242.125 685.683 242.609 685.325 242.966C684.968 243.323 684.484 243.524 683.979 243.524ZM606.489 221.946C606.32 221.946 606.159 222.013 606.04 222.132C605.92 222.251 605.854 222.412 605.853 222.58V241.62C605.853 241.788 605.92 241.95 606.039 242.069C606.159 242.188 606.32 242.255 606.489 242.255H683.979C684.147 242.255 684.309 242.188 684.428 242.069C684.547 241.95 684.614 241.788 684.614 241.62V222.58C684.614 222.412 684.547 222.251 684.428 222.132C684.309 222.013 684.147 221.946 683.979 221.946H606.489Z" fill="#3F3D56"/>
<path d="M619.827 237.812H609.664V239.081H619.827V237.812Z" fill="#3F3D56"/>
<path d="M633.801 237.812H623.638V239.081H633.801V237.812Z" fill="#3F3D56"/>
<path d="M647.774 237.812H637.612V239.081H647.774V237.812Z" fill="#3F3D56"/>
<path d="M661.748 237.812H651.585V239.081H661.748V237.812Z" fill="#3F3D56"/>
<path d="M675.722 237.812H665.559V239.081H675.722V237.812Z" fill="#3F3D56"/>
<path opacity="0.1" d="M693.836 308.108V326.107C693.836 329.811 692.363 333.364 689.742 335.984C687.12 338.603 683.564 340.075 679.856 340.075H611.011C609.175 340.075 607.358 339.714 605.662 339.012C603.966 338.309 602.426 337.28 601.128 335.983C599.831 334.686 598.801 333.146 598.099 331.452C597.397 329.757 597.036 327.941 597.037 326.107V243.309L693.836 308.108Z" fill="black"/>
<path d="M363.856 291.758H63.4224V439H363.856V291.758Z" fill="#D0CDE1"/>
<path opacity="0.1" d="M287.477 439H64.6922C64.3556 438.999 64.0331 438.865 63.795 438.627C63.557 438.389 63.4229 438.067 63.4219 437.731V293.028C63.4229 292.691 63.557 292.369 63.795 292.131C64.0331 291.893 64.3556 291.759 64.6922 291.758H67.5123L287.477 439Z" fill="black"/>
<path d="M668.099 311.433H202.523V312.702H668.099V311.433Z" fill="#3F3D56"/>
<path d="M349.718 2.74032H216.657V0H156.322V2.74032H22.713C21.531 2.74031 20.3606 2.97294 19.2686 3.4249C18.1766 3.87686 17.1844 4.53931 16.3486 5.37442C15.5128 6.20954 14.8498 7.20097 14.3975 8.2921C13.9452 9.38323 13.7124 10.5527 13.7124 11.7337V193.79C13.7124 196.175 14.6607 198.463 16.3486 200.15C18.0365 201.836 20.3259 202.784 22.713 202.784H349.718C352.105 202.784 354.394 201.836 356.082 200.15C357.77 198.463 358.718 196.175 358.718 193.79V11.7337C358.718 10.5527 358.485 9.38323 358.033 8.2921C357.581 7.20097 356.918 6.20954 356.082 5.37442C355.246 4.53931 354.254 3.87686 353.162 3.4249C352.07 2.97294 350.9 2.74031 349.718 2.74032Z" fill="#3F3D56"/>
<path d="M346.649 18.6313H25.7822V199.497H346.649V18.6313Z" fill="#D0CDE1"/>
<path d="M185.941 13.7018C187.758 13.7018 189.232 12.2295 189.232 10.4134C189.232 8.59726 187.758 7.125 185.941 7.125C184.123 7.125 182.65 8.59726 182.65 10.4134C182.65 12.2295 184.123 13.7018 185.941 13.7018Z" fill="#F21313"/>
<path d="M121.222 86.128H113.6C113.095 86.1275 112.611 85.9267 112.254 85.5697C111.896 85.2128 111.695 84.7288 111.695 84.224V76.6081C111.695 76.1033 111.896 75.6193 112.254 75.2624C112.611 74.9054 113.095 74.7047 113.6 74.7041H121.222C121.728 74.7047 122.212 74.9054 122.569 75.2624C122.926 75.6193 123.127 76.1033 123.128 76.6081V84.224C123.127 84.7288 122.926 85.2128 122.569 85.5697C122.212 85.9267 121.728 86.1275 121.222 86.128ZM113.6 75.9734C113.432 75.9736 113.271 76.0406 113.151 76.1596C113.032 76.2785 112.965 76.4398 112.965 76.6081V84.224C112.965 84.3923 113.032 84.5536 113.151 84.6726C113.271 84.7915 113.432 84.8585 113.6 84.8587H121.222C121.391 84.8585 121.552 84.7915 121.671 84.6726C121.79 84.5536 121.857 84.3923 121.857 84.224V76.6081C121.857 76.4398 121.79 76.2785 121.671 76.1596C121.552 76.0406 121.391 75.9736 121.222 75.9734H113.6Z" fill="#3F3D56"/>
<path d="M257.148 84.8584H112.33V86.1277H257.148V84.8584Z" fill="#3F3D56"/>
<path d="M253.337 119.765H219.673V129.92H253.337V119.765Z" fill="#F21313"/>
<path d="M255.877 127.381H224.754C224.249 127.38 223.765 127.18 223.407 126.823C223.05 126.466 222.849 125.982 222.849 125.477V117.861C222.849 117.356 223.05 116.872 223.407 116.515C223.765 116.158 224.249 115.958 224.754 115.957H255.877C256.382 115.958 256.867 116.158 257.224 116.515C257.581 116.872 257.782 117.356 257.783 117.861V125.477C257.782 125.982 257.581 126.466 257.224 126.823C256.867 127.18 256.382 127.38 255.877 127.381ZM224.754 117.226C224.586 117.227 224.424 117.294 224.305 117.412C224.186 117.531 224.119 117.693 224.119 117.861V125.477C224.119 125.645 224.186 125.807 224.305 125.925C224.424 126.044 224.586 126.111 224.754 126.112H255.877C256.046 126.111 256.207 126.044 256.326 125.925C256.445 125.807 256.512 125.645 256.512 125.477V117.861C256.512 117.693 256.445 117.531 256.326 117.412C256.207 117.294 256.046 117.227 255.877 117.226H224.754Z" fill="#3F3D56"/>
<path d="M510.579 131.189H447.062V175.615H510.579V131.189Z" fill="#F21313"/>
<path d="M516.93 172.125H455.954C455.281 172.124 454.635 171.856 454.158 171.38C453.682 170.904 453.414 170.259 453.414 169.586V127.698C453.414 127.025 453.682 126.38 454.158 125.904C454.635 125.428 455.281 125.16 455.954 125.16H516.93C517.604 125.16 518.25 125.428 518.726 125.904C519.202 126.38 519.47 127.025 519.471 127.698V169.586C519.47 170.259 519.202 170.904 518.726 171.38C518.25 171.856 517.604 172.124 516.93 172.125ZM455.954 127.698V169.586H516.932L516.93 127.698H455.954Z" fill="#3F3D56"/>
<path d="M509.943 126.111H507.403C507.403 120.557 505.194 115.23 501.263 111.302C497.333 107.374 492.001 105.168 486.442 105.168C480.883 105.168 475.552 107.374 471.621 111.302C467.69 115.23 465.482 120.557 465.482 126.111H462.941C462.941 119.883 465.417 113.911 469.824 109.507C474.232 105.103 480.209 102.629 486.442 102.629C492.675 102.629 498.653 105.103 503.06 109.507C507.467 113.911 509.943 119.883 509.943 126.111Z" fill="#3F3D56"/>
<path d="M492.794 143.565C492.795 142.46 492.508 141.373 491.96 140.413C491.412 139.453 490.622 138.653 489.67 138.091C488.717 137.53 487.634 137.227 486.528 137.212C485.422 137.197 484.332 137.47 483.364 138.006C482.397 138.541 481.586 139.32 481.012 140.265C480.438 141.21 480.121 142.288 480.092 143.393C480.064 144.498 480.324 145.591 480.848 146.564C481.372 147.537 482.141 148.357 483.08 148.942V155.754C483.08 156.195 483.167 156.632 483.336 157.04C483.505 157.448 483.752 157.818 484.065 158.13C484.377 158.442 484.747 158.69 485.155 158.858C485.563 159.027 486.001 159.114 486.442 159.114C487.334 159.114 488.189 158.76 488.82 158.13C489.451 157.5 489.805 156.645 489.805 155.754V148.942C490.719 148.373 491.473 147.581 491.996 146.64C492.519 145.7 492.794 144.641 492.794 143.565Z" fill="#3F3D56"/>
<path d="M190.773 357.128H180.61V358.398H190.773V357.128Z" fill="#3F3D56"/>
<path d="M204.747 357.128H194.584V358.398H204.747V357.128Z" fill="#3F3D56"/>
<path d="M218.72 357.128H208.558V358.398H218.72V357.128Z" fill="#3F3D56"/>
<path d="M232.694 357.128H222.531V358.398H232.694V357.128Z" fill="#3F3D56"/>
<path d="M246.668 357.128H236.505V358.398H246.668V357.128Z" fill="#3F3D56"/>
<path d="M377.194 428.211H79.3014C78.6278 428.21 77.982 427.943 77.5057 427.467C77.0294 426.991 76.7615 426.345 76.7607 425.672V280.969C76.7615 280.296 77.0294 279.651 77.5057 279.175C77.982 278.699 78.6278 278.431 79.3014 278.431H377.194C377.867 278.431 378.513 278.699 378.99 279.175C379.466 279.651 379.734 280.296 379.734 280.969V425.672C379.734 426.345 379.466 426.991 378.99 427.467C378.513 427.943 377.867 428.21 377.194 428.211ZM79.3014 280.969V425.672H377.196L377.194 280.969H79.3014Z" fill="#3F3D56"/>
<path d="M92.6396 302.548C94.7444 302.548 96.4506 300.843 96.4506 298.74C96.4506 296.637 94.7444 294.932 92.6396 294.932C90.5349 294.932 88.8286 296.637 88.8286 298.74C88.8286 300.843 90.5349 302.548 92.6396 302.548Z" fill="#3F3D56"/>
<path d="M105.978 302.548C108.083 302.548 109.789 300.843 109.789 298.74C109.789 296.637 108.083 294.932 105.978 294.932C103.874 294.932 102.167 296.637 102.167 298.74C102.167 300.843 103.874 302.548 105.978 302.548Z" fill="#3F3D56"/>
<path d="M119.317 302.548C121.422 302.548 123.128 300.843 123.128 298.74C123.128 296.637 121.422 294.932 119.317 294.932C117.212 294.932 115.506 296.637 115.506 298.74C115.506 300.843 117.212 302.548 119.317 302.548Z" fill="#3F3D56"/>
<path d="M256.512 366.014H170.765C170.26 366.013 169.775 365.813 169.418 365.456C169.061 365.099 168.86 364.615 168.859 364.11V342.531C168.86 342.027 169.061 341.543 169.418 341.186C169.775 340.829 170.26 340.628 170.765 340.627H256.512C257.017 340.628 257.502 340.829 257.859 341.186C258.216 341.543 258.417 342.027 258.418 342.531V364.11C258.417 364.615 258.216 365.099 257.859 365.456C257.502 365.813 257.017 366.013 256.512 366.014ZM170.765 341.897C170.596 341.897 170.435 341.964 170.316 342.083C170.197 342.202 170.13 342.363 170.13 342.531V364.11C170.13 364.278 170.197 364.44 170.316 364.559C170.435 364.678 170.596 364.744 170.765 364.745H256.512C256.681 364.744 256.842 364.678 256.961 364.559C257.08 364.44 257.147 364.278 257.147 364.11V342.531C257.147 342.363 257.08 342.202 256.961 342.083C256.842 341.964 256.681 341.897 256.512 341.897H170.765Z" fill="#3F3D56"/>
<path d="M278.108 366.649C284.422 366.649 289.541 361.534 289.541 355.225C289.541 348.915 284.422 343.801 278.108 343.801C271.794 343.801 266.675 348.915 266.675 355.225C266.675 361.534 271.794 366.649 278.108 366.649Z" fill="#F21313"/>
<path d="M281.919 365.379C279.532 365.379 277.199 364.672 275.215 363.347C273.23 362.022 271.683 360.138 270.77 357.935C269.856 355.732 269.617 353.307 270.083 350.968C270.549 348.629 271.698 346.48 273.386 344.794C275.074 343.107 277.224 341.959 279.565 341.493C281.906 341.028 284.332 341.267 286.538 342.18C288.743 343.092 290.627 344.638 291.954 346.621C293.28 348.604 293.987 350.935 293.987 353.32C293.984 356.517 292.711 359.582 290.449 361.843C288.186 364.104 285.119 365.375 281.919 365.379ZM281.919 342.531C279.784 342.531 277.696 343.164 275.92 344.349C274.145 345.535 272.761 347.22 271.943 349.191C271.126 351.163 270.912 353.332 271.329 355.425C271.746 357.518 272.774 359.441 274.284 360.949C275.794 362.458 277.718 363.486 279.813 363.902C281.907 364.319 284.078 364.105 286.051 363.288C288.024 362.472 289.711 361.089 290.897 359.315C292.084 357.54 292.717 355.454 292.717 353.32C292.714 350.46 291.575 347.717 289.551 345.695C287.527 343.672 284.782 342.534 281.919 342.531Z" fill="#3F3D56"/>
<path d="M282.088 357.824L275.939 351.679L277.736 349.884L281.749 353.894L292.949 337.992L295.026 339.454L282.088 357.824Z" fill="#3F3D56"/>
<path opacity="0.1" d="M275.51 199.498H25.7822V32.334L275.51 199.498Z" fill="black"/>
<path d="M367.728 196.207H336.413V193.952C336.413 193.894 336.401 193.836 336.379 193.781C336.356 193.727 336.323 193.678 336.282 193.636C336.24 193.595 336.191 193.562 336.136 193.539C336.082 193.517 336.024 193.505 335.965 193.505H325.229C325.17 193.505 325.112 193.517 325.057 193.539C325.003 193.562 324.954 193.595 324.912 193.636C324.871 193.678 324.838 193.727 324.815 193.781C324.793 193.836 324.781 193.894 324.781 193.952V196.207H318.071V193.952C318.071 193.894 318.059 193.836 318.037 193.781C318.014 193.727 317.981 193.678 317.94 193.636C317.898 193.595 317.849 193.562 317.795 193.539C317.741 193.517 317.682 193.505 317.624 193.505H306.887C306.828 193.505 306.77 193.517 306.716 193.539C306.662 193.562 306.612 193.595 306.571 193.636C306.529 193.678 306.496 193.727 306.474 193.781C306.451 193.836 306.44 193.894 306.44 193.952V196.207H299.729V193.952C299.729 193.894 299.718 193.836 299.695 193.781C299.673 193.727 299.64 193.678 299.598 193.636C299.557 193.595 299.507 193.562 299.453 193.539C299.399 193.517 299.341 193.505 299.282 193.505H288.545C288.487 193.505 288.428 193.517 288.374 193.539C288.32 193.562 288.271 193.595 288.229 193.636C288.188 193.678 288.155 193.727 288.132 193.781C288.11 193.836 288.098 193.894 288.098 193.952V196.207H281.388V193.952C281.388 193.894 281.376 193.836 281.354 193.781C281.331 193.727 281.298 193.678 281.257 193.636C281.215 193.595 281.166 193.562 281.112 193.539C281.057 193.517 280.999 193.505 280.94 193.505H270.204C270.145 193.505 270.087 193.517 270.033 193.539C269.978 193.562 269.929 193.595 269.887 193.636C269.846 193.678 269.813 193.727 269.79 193.781C269.768 193.836 269.756 193.894 269.756 193.952V196.207H263.046V193.952C263.046 193.894 263.034 193.836 263.012 193.781C262.99 193.727 262.957 193.678 262.915 193.636C262.873 193.595 262.824 193.562 262.77 193.539C262.716 193.517 262.657 193.505 262.599 193.505H251.862C251.803 193.505 251.745 193.517 251.691 193.539C251.637 193.562 251.587 193.595 251.546 193.636C251.504 193.678 251.471 193.727 251.449 193.781C251.426 193.836 251.415 193.894 251.415 193.952V196.207H244.704V193.952C244.704 193.894 244.693 193.836 244.67 193.781C244.648 193.727 244.615 193.678 244.573 193.636C244.532 193.595 244.483 193.562 244.428 193.539C244.374 193.517 244.316 193.505 244.257 193.505H233.52C233.462 193.505 233.404 193.517 233.349 193.539C233.295 193.562 233.246 193.595 233.204 193.636C233.163 193.678 233.13 193.727 233.107 193.781C233.085 193.836 233.073 193.894 233.073 193.952V196.207H226.363V193.952C226.363 193.894 226.351 193.836 226.329 193.781C226.306 193.727 226.273 193.678 226.232 193.636C226.19 193.595 226.141 193.562 226.087 193.539C226.032 193.517 225.974 193.505 225.915 193.505H141.812C141.753 193.505 141.695 193.517 141.641 193.539C141.587 193.562 141.537 193.595 141.496 193.636C141.454 193.678 141.421 193.727 141.399 193.781C141.376 193.836 141.365 193.894 141.365 193.952V196.207H134.655V193.952C134.655 193.894 134.643 193.836 134.62 193.781C134.598 193.727 134.565 193.678 134.523 193.636C134.482 193.595 134.433 193.562 134.378 193.539C134.324 193.517 134.266 193.505 134.207 193.505H123.471C123.412 193.505 123.354 193.517 123.299 193.539C123.245 193.562 123.196 193.595 123.154 193.636C123.113 193.678 123.08 193.727 123.057 193.781C123.035 193.836 123.023 193.894 123.023 193.952V196.207H116.313V193.952C116.313 193.894 116.301 193.836 116.279 193.781C116.256 193.727 116.223 193.678 116.182 193.636C116.14 193.595 116.091 193.562 116.037 193.539C115.982 193.517 115.924 193.505 115.866 193.505H105.129C105.07 193.505 105.012 193.517 104.958 193.539C104.903 193.562 104.854 193.595 104.813 193.636C104.771 193.678 104.738 193.727 104.716 193.781C104.693 193.836 104.682 193.894 104.682 193.952V196.207H97.9712V193.952C97.9712 193.894 97.9597 193.836 97.9372 193.781C97.9147 193.727 97.8817 193.678 97.8402 193.636C97.7987 193.595 97.7493 193.562 97.6951 193.539C97.6408 193.517 97.5826 193.505 97.5239 193.505H86.7873C86.7286 193.505 86.6704 193.517 86.6161 193.539C86.5618 193.562 86.5125 193.595 86.471 193.636C86.4294 193.678 86.3965 193.727 86.374 193.781C86.3515 193.836 86.34 193.894 86.34 193.952V196.207H79.6296V193.952C79.6296 193.894 79.618 193.836 79.5955 193.781C79.5731 193.727 79.5401 193.678 79.4986 193.636C79.457 193.595 79.4077 193.562 79.3534 193.539C79.2991 193.517 79.241 193.505 79.1822 193.505H68.4456C68.3869 193.505 68.3287 193.517 68.2744 193.539C68.2202 193.562 68.1708 193.595 68.1293 193.636C68.0878 193.678 68.0548 193.727 68.0323 193.781C68.0098 193.836 67.9983 193.894 67.9983 193.952V196.207H61.288V193.952C61.288 193.894 61.2764 193.836 61.2539 193.781C61.2314 193.727 61.1985 193.678 61.1569 193.636C61.1154 193.595 61.0661 193.562 61.0118 193.539C60.9575 193.517 60.8993 193.505 60.8406 193.505H50.104C50.0453 193.505 49.9871 193.517 49.9328 193.539C49.8785 193.562 49.8292 193.595 49.7877 193.636C49.7461 193.678 49.7132 193.727 49.6907 193.781C49.6682 193.836 49.6566 193.894 49.6567 193.952V196.207H42.9463V193.952C42.9463 193.894 42.9347 193.836 42.9122 193.781C42.8898 193.727 42.8568 193.678 42.8153 193.636C42.7737 193.595 42.7244 193.562 42.6701 193.539C42.6159 193.517 42.5577 193.505 42.4989 193.505H31.7624C31.7036 193.505 31.6454 193.517 31.5912 193.539C31.5369 193.562 31.4876 193.595 31.446 193.636C31.4045 193.678 31.3715 193.727 31.3491 193.781C31.3266 193.836 31.315 193.894 31.315 193.952V196.207H10.7366C9.32662 196.207 7.93048 196.484 6.62786 197.023C5.32524 197.563 4.14165 198.353 3.14467 199.349C2.14768 200.345 1.35683 201.528 0.817271 202.829C0.277708 204.131 -8.3411e-07 205.526 0 206.935V211.786C6.73825e-06 214.631 1.13118 217.36 3.14468 219.372C5.15817 221.384 7.88906 222.514 10.7366 222.514H367.728C369.138 222.514 370.534 222.236 371.836 221.697C373.139 221.158 374.323 220.368 375.32 219.372C376.316 218.376 377.107 217.193 377.647 215.891C378.186 214.59 378.464 213.195 378.464 211.786V206.935C378.464 205.526 378.186 204.131 377.647 202.829C377.107 201.528 376.316 200.345 375.32 199.349C374.323 198.353 373.139 197.563 371.836 197.023C370.534 196.484 369.138 196.207 367.728 196.207Z" fill="#3F3D56"/>
<path d="M269.851 138.17H102.167C101.662 138.17 101.178 137.969 100.82 137.612C100.463 137.255 100.262 136.771 100.262 136.266V66.4533C100.262 65.9485 100.463 65.4645 100.82 65.1076C101.178 64.7506 101.662 64.5499 102.167 64.5493H269.851C270.356 64.5499 270.84 64.7506 271.198 65.1076C271.555 65.4645 271.756 65.9485 271.756 66.4533V136.266C271.756 136.771 271.555 137.255 271.198 137.612C270.84 137.969 270.356 138.17 269.851 138.17ZM102.167 65.8186C101.999 65.8189 101.837 65.8858 101.718 66.0048C101.599 66.1237 101.532 66.285 101.532 66.4533V136.266C101.532 136.434 101.599 136.596 101.718 136.715C101.837 136.834 101.999 136.901 102.167 136.901H269.851C270.019 136.901 270.181 136.834 270.3 136.715C270.419 136.596 270.486 136.434 270.486 136.266V66.4533C270.486 66.285 270.419 66.1237 270.3 66.0048C270.181 65.8858 270.019 65.8189 269.851 65.8186H102.167Z" fill="#3F3D56"/>
<path d="M121.222 105.168H113.6C113.095 105.167 112.611 104.966 112.254 104.609C111.896 104.252 111.695 103.768 111.695 103.264V95.6476C111.695 95.1428 111.896 94.6589 112.254 94.3019C112.611 93.945 113.095 93.7442 113.6 93.7437H121.222C121.728 93.7442 122.212 93.945 122.569 94.3019C122.926 94.6589 123.127 95.1428 123.128 95.6476V103.264C123.127 103.768 122.926 104.252 122.569 104.609C122.212 104.966 121.728 105.167 121.222 105.168ZM113.6 95.013C113.432 95.0132 113.271 95.0801 113.151 95.1991C113.032 95.3181 112.965 95.4794 112.965 95.6476V103.264C112.965 103.432 113.032 103.593 113.151 103.712C113.271 103.831 113.432 103.898 113.6 103.898H121.222C121.391 103.898 121.552 103.831 121.671 103.712C121.79 103.593 121.857 103.432 121.857 103.264V95.6476C121.857 95.4794 121.79 95.3181 121.671 95.1991C121.552 95.0801 121.391 95.0132 121.222 95.013H113.6Z" fill="#3F3D56"/>
<path d="M257.148 103.898H112.33V105.168H257.148V103.898Z" fill="#3F3D56"/>
<path d="M633.801 171.172H168.225V172.442H633.801V171.172Z" fill="#3F3D56"/>
<path d="M168.224 180.058C173.135 180.058 177.117 176.08 177.117 171.172C177.117 166.265 173.135 162.287 168.224 162.287C163.313 162.287 159.332 166.265 159.332 171.172C159.332 176.08 163.313 180.058 168.224 180.058Z" fill="#3F3D56"/>
<path d="M633.801 179.423C637.659 179.423 640.788 176.297 640.788 172.442C640.788 168.586 637.659 165.46 633.801 165.46C629.942 165.46 626.814 168.586 626.814 172.442C626.814 176.297 629.942 179.423 633.801 179.423Z" fill="#3F3D56"/>
<path d="M668.1 319.683C671.958 319.683 675.086 316.558 675.086 312.702C675.086 308.846 671.958 305.721 668.1 305.721C664.241 305.721 661.113 308.846 661.113 312.702C661.113 316.558 664.241 319.683 668.1 319.683Z" fill="#3F3D56"/>
<path d="M204.429 319.683C208.287 319.683 211.416 316.558 211.416 312.702C211.416 308.846 208.287 305.721 204.429 305.721C200.57 305.721 197.442 308.846 197.442 312.702C197.442 316.558 200.57 319.683 204.429 319.683Z" fill="#3F3D56"/>
</g>
<defs>
<clipPath id="clip0">
<rect width="699" height="439" fill="white"/>
</clipPath>
</defs>
</svg>
