<svg width="665" height="509" viewBox="0 0 665 509" fill="none" xmlns="http://www.w3.org/2000/svg">
<g clip-path="url(#clip0)">
<path d="M603.708 0.332031H0.257568V376.079H603.708V0.332031Z" fill="#E6E6E6"/>
<path d="M586.453 47.4604H17.5132V353.85H586.453V47.4604Z" fill="white"/>
<path d="M603.451 0H0V24.9251H603.451V0Z" fill="#F51500"/>
<path d="M19.0509 17.3624C21.6751 17.3624 23.8025 15.2941 23.8025 12.7427C23.8025 10.1913 21.6751 8.12305 19.0509 8.12305C16.4267 8.12305 14.2993 10.1913 14.2993 12.7427C14.2993 15.2941 16.4267 17.3624 19.0509 17.3624Z" fill="white"/>
<path d="M37.0873 17.3624C39.7115 17.3624 41.8389 15.2941 41.8389 12.7427C41.8389 10.1913 39.7115 8.12305 37.0873 8.12305C34.463 8.12305 32.3357 10.1913 32.3357 12.7427C32.3357 15.2941 34.463 17.3624 37.0873 17.3624Z" fill="white"/>
<path d="M55.1229 17.3624C57.7472 17.3624 59.8745 15.2941 59.8745 12.7427C59.8745 10.1913 57.7472 8.12305 55.1229 8.12305C52.4987 8.12305 50.3713 10.1913 50.3713 12.7427C50.3713 15.2941 52.4987 17.3624 55.1229 17.3624Z" fill="white"/>
<path d="M215.4 79.251H69.2095V322.06H215.4V79.251Z" fill="#E6E6E6"/>
<path d="M362.461 79.251H240.635V146.087H362.461V79.251Z" fill="#F51500"/>
<path d="M362.461 164.7H240.635V236.612H362.461V164.7Z" fill="#E6E6E6"/>
<path d="M362.461 255.225H240.635V322.061H362.461V255.225Z" fill="#E6E6E6"/>
<path d="M534.757 79.251H388.566V185.066H534.757V79.251Z" fill="#E6E6E6"/>
<path d="M534.757 216.245H388.566V322.06H534.757V216.245Z" fill="#E6E6E6"/>
<path d="M478.439 192.667V169.887C478.439 161.791 481.747 154.026 487.635 148.302C493.523 142.577 501.51 139.361 509.837 139.361C518.164 139.361 526.15 142.577 532.038 148.302C537.926 154.026 541.234 161.791 541.234 169.887V192.667C541.233 193.754 540.788 194.796 539.997 195.565C539.207 196.334 538.135 196.766 537.017 196.768H482.657C481.539 196.766 480.467 196.334 479.676 195.565C478.885 194.796 478.44 193.754 478.439 192.667Z" fill="#2F2E41"/>
<path d="M556.263 489.128L545.189 492.108L528.097 451.998L544.442 447.601L556.263 489.128Z" fill="#FFB8B8"/>
<path d="M536.403 491.161L557.76 485.414L561.482 498.488L526.678 507.852C526.189 506.136 526.053 504.342 526.277 502.574C526.501 500.806 527.082 499.098 527.985 497.548C528.888 495.998 530.096 494.636 531.541 493.54C532.985 492.444 534.637 491.636 536.403 491.161Z" fill="#2F2E41"/>
<path d="M440.809 497.41H429.318L423.852 454.321H440.811L440.809 497.41Z" fill="#FFB8B8"/>
<path d="M421.11 494.218H443.27V507.783H407.158C407.158 506.002 407.519 504.238 408.22 502.592C408.921 500.946 409.949 499.451 411.244 498.191C412.54 496.931 414.078 495.932 415.771 495.25C417.464 494.569 419.278 494.218 421.11 494.218Z" fill="#2F2E41"/>
<path d="M426.953 256.596C427.774 257.673 428.827 258.561 430.038 259.199C431.25 259.837 432.59 260.209 433.966 260.289C435.341 260.369 436.718 260.154 437.999 259.661C439.28 259.167 440.434 258.406 441.379 257.432L471.924 270.789L469.146 254.085L440.566 243.962C438.778 242.526 436.509 241.777 434.191 241.858C431.873 241.939 429.666 242.844 427.988 244.401C426.31 245.958 425.278 248.06 425.087 250.308C424.897 252.555 425.561 254.793 426.954 256.596H426.953Z" fill="#FFB8B8"/>
<path d="M490.417 357.048C480.82 357.048 470.886 355.658 462.535 351.524C458.103 349.373 454.174 346.356 450.996 342.661C447.817 338.966 445.457 334.673 444.064 330.051C439.713 316.657 445.199 303.498 450.504 290.773C453.791 282.888 456.896 275.44 457.702 268.099L457.983 265.492C459.238 253.785 460.322 243.675 466.322 239.882C469.432 237.917 473.613 237.805 479.106 239.539L530.697 255.833L528.8 351.046L528.486 351.148C528.216 351.236 510.029 357.048 490.417 357.048Z" fill="#2F2E41"/>
<path d="M478.205 209.897C478.205 209.897 503.51 202.607 523.192 205.341C523.192 205.341 511.945 265.481 515.694 285.528C519.443 305.575 450.556 293.273 464.615 274.138L469.301 251.357C469.301 251.357 459.929 242.245 468.364 231.311L478.205 209.897Z" fill="#F51500"/>
<path d="M465.758 355.243L434.57 349.557L445.459 268.088C446.191 265.814 463.058 214.196 470.719 211.403C476.281 209.499 481.969 207.963 487.745 206.805L488.854 206.589L482.601 215.709L457.704 273.712L465.758 355.243Z" fill="#2F2E41"/>
<path d="M449.508 487.427L409.212 480.897L431.825 391.121L465.475 268.346L465.807 270.526C465.834 270.688 468.977 286.727 515.622 279.61L516.032 279.548L516.146 279.937L572.522 473.604L526.607 481.044L484.728 339.745L449.508 487.427Z" fill="#2F2E41"/>
<path d="M505.36 370.488L505.385 369.799C505.413 369.034 508.185 292.918 507.259 262.305C506.33 231.589 516.559 204.989 516.662 204.724L516.745 204.51L516.971 204.447C530.205 200.772 541.685 211.742 541.8 211.853L541.961 212.01L538.192 242.24L554.328 352.171L505.36 370.488Z" fill="#2F2E41"/>
<path d="M503.385 196.237C516.098 196.237 526.404 186.217 526.404 173.857C526.404 161.497 516.098 151.477 503.385 151.477C490.671 151.477 480.365 161.497 480.365 173.857C480.365 186.217 490.671 196.237 503.385 196.237Z" fill="#FFB8B8"/>
<path d="M471.011 171.71C471.019 165.308 473.638 159.17 478.294 154.643C482.95 150.116 489.263 147.57 495.848 147.562H500.535C507.119 147.57 513.432 150.116 518.089 154.643C522.745 159.17 525.364 165.308 525.371 171.71V172.165H515.468L512.09 162.97L511.414 172.165H506.296L504.592 167.526L504.251 172.165H471.011V171.71Z" fill="#2F2E41"/>
<path d="M501.119 199.33C500.654 198.718 500.377 197.991 500.318 197.232C500.26 196.473 500.423 195.714 500.789 195.041C505.755 185.858 512.708 168.889 503.479 158.424L502.816 157.672H529.609V196.782L505.269 200.957C505.023 200.999 504.773 201.021 504.523 201.021C503.858 201.021 503.204 200.868 502.612 200.574C502.02 200.28 501.509 199.854 501.119 199.33Z" fill="#2F2E41"/>
<path d="M393.246 37.8573C374.497 22.4763 351.555 12.7249 327.21 9.78978C302.865 6.85466 278.168 10.8623 256.123 21.3252C234.078 31.788 215.636 48.2548 203.042 68.7219C190.448 89.1889 184.243 112.774 185.184 136.607C186.126 160.439 194.171 183.492 208.343 202.96C222.514 222.428 242.2 237.472 265.005 246.261C287.81 255.05 312.751 257.205 336.792 252.464C360.834 247.723 382.94 236.29 400.42 219.556L555.644 346.897C558.006 348.838 561.064 349.788 564.146 349.537C567.228 349.286 570.081 347.855 572.078 345.559C574.074 343.263 575.051 340.289 574.793 337.293C574.535 334.296 573.063 331.523 570.701 329.581L570.684 329.567L415.461 202.227C433.493 177.065 441.21 146.264 437.101 115.858C432.992 85.453 417.352 57.6355 393.246 37.8573ZM383.239 189.965C371.147 203.898 355.076 214.032 337.059 219.085C319.043 224.139 299.889 223.884 282.021 218.355C264.153 212.825 248.373 202.268 236.677 188.018C224.98 173.769 217.892 156.468 216.309 138.302C214.726 120.136 218.719 101.922 227.784 85.963C236.848 70.0037 250.576 57.0161 267.233 48.6425C283.889 40.269 302.726 36.8855 321.36 38.92C339.994 40.9546 357.589 48.3157 371.921 60.0726H371.921C381.436 67.8789 389.277 77.4309 394.996 88.1833C400.714 98.9357 404.199 110.678 405.25 122.74C406.301 134.801 404.898 146.946 401.121 158.48C397.345 170.015 391.268 180.713 383.239 189.965Z" fill="#3F3D56"/>
<path opacity="0.3" d="M249.638 200.97C231.45 186.047 219.699 165.021 216.719 142.065C213.738 119.109 219.746 95.9027 233.55 77.0542C231.737 78.8291 229.985 80.688 228.293 82.6307C220.263 91.8821 214.187 102.58 210.411 114.115C206.634 125.65 205.231 137.794 206.282 149.856C207.333 161.917 210.818 173.66 216.536 184.412C222.255 195.165 230.096 204.717 239.611 212.523C249.127 220.329 260.131 226.237 271.995 229.908C283.858 233.58 296.35 234.944 308.756 233.922C321.162 232.9 333.239 229.513 344.299 223.953C355.358 218.393 365.183 210.77 373.212 201.518C374.901 199.573 376.491 197.581 377.982 195.542C361.194 211.942 338.676 221.604 314.9 222.609C291.123 223.615 267.828 215.89 249.638 200.97Z" fill="black"/>
<path d="M510.775 295.722C512.113 296.04 513.507 296.069 514.859 295.807C516.21 295.544 517.485 294.997 518.595 294.204C519.706 293.411 520.623 292.39 521.284 291.215C521.945 290.039 522.332 288.737 522.419 287.4L554.691 278.691L541.573 267.571L512.938 277.546C510.618 277.553 508.382 278.387 506.652 279.889C504.922 281.392 503.819 283.46 503.553 285.7C503.286 287.94 503.874 290.198 505.205 292.045C506.536 293.892 508.518 295.2 510.775 295.722Z" fill="#FFB8B8"/>
<path d="M524.189 291.112L522.225 272.973L549.183 258.513L531.607 237.828L534.475 214.593L541.616 211.617L541.839 211.895C545.206 216.105 574.74 253.155 574.74 257.736C574.74 262.44 569.09 276.254 561.36 280.012C553.904 283.637 525.904 290.682 524.716 290.981L524.189 291.112Z" fill="#2F2E41"/>
<path d="M664.063 509H306.976C306.727 509 306.489 508.904 306.313 508.733C306.137 508.562 306.038 508.33 306.038 508.088C306.038 507.847 306.137 507.615 306.313 507.444C306.489 507.273 306.727 507.177 306.976 507.177H664.063C664.311 507.177 664.55 507.273 664.726 507.444C664.901 507.615 665 507.847 665 508.088C665 508.33 664.901 508.562 664.726 508.733C664.55 508.904 664.311 509 664.063 509Z" fill="#CCCCCC"/>
</g>
<defs>
<clipPath id="clip0">
<rect width="665" height="509" fill="white"/>
</clipPath>
</defs>
</svg>
